<svg id="Layer_1" data-name="Layer 1" xmlns="http://www.w3.org/2000/svg" viewBox="0 0 84.03 122.88"><defs><style>.cls-1{fill:#7ebc1b;fill-rule:evenodd;}.cls-2{fill:#629907;}</style></defs><title>leaf-green-color</title><path class="cls-1" d="M47.79,108.75c60.66.2,29.44-75.92,17.84-100.68C65.28,7.32,62.15-.15,61.86,0c-.18-.3-7,4.88-7.7,5.37-22.79,16-86.09,64.53-34.32,96,19.83,12,5.39,7.35,28,7.42Z"/><path class="cls-2" d="M27.85,118l7.53-26.62a41.12,41.12,0,0,1-7.59-11.91,78.08,78.08,0,0,1-5.21-17.19l-.88-4.9,2.09,5.31c3.49,8.83,8.23,20.86,12.7,25l5.22-17.37A48.29,48.29,0,0,1,34,59.05a47.79,47.79,0,0,1-4.12-12.92l-.76-4.2,1.69,3.92A139.66,139.66,0,0,0,37,58.9a27.18,27.18,0,0,0,5.8,7.6L46.6,54a46.61,46.61,0,0,1-7.24-11.14,48.64,48.64,0,0,1-3.73-12.91L35,25.55l1.62,4.11a132.82,132.82,0,0,0,5.75,13c1.77,3.35,3.57,6,5.42,7.47l9.63-32.08.95.26L51.51,46.21c2.33-.38,5.18-1.75,8.35-3.75a133.73,133.73,0,0,0,11.5-8.4l3.46-2.75-2.77,3.44a48.16,48.16,0,0,1-9.67,9.31,46.28,46.28,0,0,1-11.82,6L47.47,62.75a28.37,28.37,0,0,0,8.86-3.7A143.31,143.31,0,0,0,68.27,51l3.43-2.52L68.94,51.7a48.32,48.32,0,0,1-10.06,9.06,48.61,48.61,0,0,1-12.34,5.78L42,85a42.85,42.85,0,0,0,10-5.27A120.74,120.74,0,0,0,66.18,68.7l3-2.76-2.27,3.4A49.3,49.3,0,0,1,55.65,80.72a58.43,58.43,0,0,1-14.57,8.12l-7.94,30.53c-.06.25-.12.52-.17.78l-.12.57c-.36,1.55-.88,2.56-3.3,2s-2.55-1.59-2.22-3a11.83,11.83,0,0,1,.33-1.14l.19-.6Z"/></svg>