<svg id="svg" version="1.1" xmlns="http://www.w3.org/2000/svg" xmlns:xlink="http://www.w3.org/1999/xlink" width="400" height="220.26431718061673" viewBox="0, 0, 400,220.26431718061673"><g id="svgg"><path id="path0" d="M4.846 38.550 C 2.702 38.844,1.511 39.609,0.870 41.105 C 0.642 41.636,0.354 42.070,0.228 42.070 C -0.165 42.070,-0.083 125.692,0.310 125.843 C 0.480 125.908,0.683 126.250,0.760 126.604 C 0.941 127.426,2.039 128.486,3.304 129.058 C 4.275 129.496,4.664 129.506,22.026 129.504 L 39.758 129.501 41.171 128.903 C 42.371 128.394,42.687 128.138,43.264 127.203 L 43.943 126.101 44.003 114.258 C 44.044 106.222,43.989 102.274,43.830 101.978 C 43.507 101.373,32.963 101.289,32.733 101.890 C 32.659 102.082,32.599 105.994,32.599 110.583 L 32.599 118.927 31.916 119.706 L 31.232 120.485 22.236 120.485 L 13.240 120.485 12.622 119.953 L 12.004 119.421 11.947 84.488 C 11.885 46.606,11.828 48.504,13.060 47.697 C 13.539 47.383,14.617 47.349,22.458 47.405 L 31.314 47.467 31.957 48.186 L 32.599 48.906 32.599 56.788 C 32.599 62.624,32.668 64.738,32.863 64.934 C 33.311 65.382,43.257 65.301,43.712 64.846 C 44.027 64.532,44.058 63.297,44.004 53.117 L 43.943 41.740 43.282 40.769 C 41.596 38.292,41.916 38.328,22.247 38.359 C 13.343 38.372,5.512 38.459,4.846 38.550 M62.445 38.473 C 59.933 39.053,58.606 40.172,58.167 42.079 C 57.889 43.283,57.856 124.300,58.132 125.730 C 58.361 126.914,59.322 128.135,60.592 128.855 L 61.564 129.405 80.286 129.405 L 99.009 129.405 100.076 128.909 C 101.304 128.337,101.809 127.818,102.488 126.432 L 102.974 125.441 102.974 84.141 C 102.974 43.519,102.966 42.822,102.537 41.665 C 102.036 40.313,100.891 39.158,99.630 38.732 C 98.807 38.454,63.589 38.208,62.445 38.473 M117.849 38.752 C 117.423 39.548,117.542 129.218,117.970 129.382 C 118.424 129.556,128.712 129.556,129.167 129.382 C 129.481 129.261,129.515 127.333,129.515 109.821 L 129.515 90.395 130.232 89.701 L 130.948 89.006 139.711 88.941 C 147.213 88.886,148.505 88.829,148.683 88.546 C 149.082 87.915,148.951 80.494,148.535 80.148 C 148.245 79.907,146.382 79.823,139.374 79.736 L 130.578 79.626 130.047 79.008 L 129.515 78.390 129.515 63.765 C 129.515 52.895,129.583 48.991,129.779 48.562 C 130.318 47.379,130.509 47.357,140.077 47.357 C 150.917 47.357,149.780 47.888,149.780 42.827 C 149.780 40.733,149.683 38.997,149.552 38.752 C 149.194 38.084,118.207 38.084,117.849 38.752 M185.166 38.729 C 184.692 39.253,184.593 128.778,185.066 129.251 C 185.469 129.654,195.451 129.624,195.787 129.219 C 195.965 129.004,196.049 120.987,196.089 100.223 C 196.142 73.253,196.168 71.509,196.528 71.283 C 197.338 70.771,198.223 72.748,203.612 87.115 C 204.108 88.437,206.300 94.134,209.419 102.203 C 211.744 108.220,216.001 119.332,217.982 124.559 C 218.900 126.982,219.809 129.089,220.000 129.240 C 220.366 129.529,228.896 129.655,229.608 129.382 C 230.035 129.218,230.154 39.548,229.728 38.752 C 229.386 38.113,219.884 38.092,219.307 38.729 C 218.972 39.099,218.943 41.379,218.943 67.025 L 218.943 94.918 218.475 95.169 C 217.709 95.579,217.380 94.986,215.100 89.097 C 213.928 86.068,212.786 83.144,212.562 82.599 C 212.338 82.054,210.253 76.751,207.928 70.815 C 205.604 64.879,202.384 56.702,200.775 52.643 C 199.165 48.585,197.328 43.926,196.692 42.291 C 195.030 38.014,195.550 38.326,190.084 38.326 C 185.953 38.326,185.497 38.363,185.166 38.729 M245.086 38.720 C 244.605 39.252,244.498 128.771,244.978 129.251 C 245.257 129.531,255.341 129.650,256.039 129.382 C 256.355 129.260,256.388 125.505,256.388 89.077 L 256.388 48.906 257.030 48.186 L 257.673 47.467 266.107 47.404 C 275.091 47.337,275.322 47.361,276.101 48.414 C 276.530 48.992,276.544 49.404,276.603 63.400 L 276.664 77.792 276.190 78.559 C 275.498 79.678,275.164 79.735,269.314 79.739 C 265.464 79.741,263.834 79.819,263.436 80.021 L 262.885 80.299 262.826 84.426 L 262.766 88.553 263.373 88.785 C 264.628 89.261,282.706 88.920,284.293 88.389 C 286.120 87.779,286.926 87.164,287.509 85.937 L 287.996 84.912 287.996 63.639 L 287.996 42.365 287.481 41.267 C 286.899 40.024,285.942 39.163,284.674 38.741 C 283.074 38.209,245.567 38.189,245.086 38.720 M297.909 38.813 C 297.842 39.090,297.814 59.587,297.847 84.361 L 297.907 129.405 303.524 129.405 L 309.141 129.405 309.251 89.202 L 309.361 48.998 309.874 48.343 C 310.614 47.397,310.558 47.403,319.676 47.379 L 328.007 47.357 328.651 48.001 L 329.295 48.645 329.295 63.601 L 329.295 78.558 328.727 79.092 C 328.164 79.622,328.121 79.626,322.395 79.739 C 318.330 79.819,316.484 79.935,316.134 80.132 C 315.345 80.578,315.397 85.986,316.212 88.216 C 316.522 89.064,316.958 90.303,317.181 90.969 C 317.403 91.635,317.848 92.874,318.168 93.722 C 318.488 94.570,318.839 95.562,318.948 95.925 C 319.150 96.598,319.536 97.698,321.150 102.203 C 321.650 103.596,322.241 105.281,322.465 105.947 C 322.689 106.613,323.134 107.852,323.454 108.700 C 323.774 109.548,324.122 110.540,324.228 110.903 C 324.518 111.901,325.134 113.674,325.483 114.515 C 325.655 114.926,326.089 116.165,326.449 117.268 C 326.809 118.371,327.197 119.471,327.311 119.714 C 327.607 120.344,328.400 122.659,328.637 123.583 C 328.748 124.015,328.990 124.659,329.176 125.014 C 329.361 125.370,329.517 125.809,329.522 125.991 C 329.526 126.173,329.722 126.718,329.956 127.203 C 330.190 127.687,330.385 128.287,330.389 128.535 C 330.405 129.478,330.647 129.515,336.705 129.515 C 340.326 129.515,342.536 129.433,342.621 129.295 C 342.752 129.083,341.830 126.126,341.352 125.225 C 341.225 124.986,341.043 124.490,340.948 124.124 C 340.854 123.758,340.514 122.764,340.194 121.916 C 339.874 121.068,339.429 119.829,339.205 119.163 C 338.534 117.170,338.104 116.009,337.765 115.275 C 337.589 114.893,337.442 114.447,337.437 114.284 C 337.433 114.120,337.238 113.590,337.004 113.106 C 336.770 112.621,336.575 112.091,336.571 111.928 C 336.567 111.764,336.417 111.318,336.237 110.936 C 336.057 110.555,335.768 109.796,335.595 109.251 C 335.421 108.706,335.018 107.566,334.698 106.718 C 334.378 105.870,334.020 104.859,333.901 104.472 C 333.783 104.084,333.541 103.489,333.364 103.150 C 333.187 102.811,333.042 102.359,333.041 102.147 C 333.040 101.934,332.841 101.391,332.599 100.939 C 332.357 100.487,332.159 99.941,332.159 99.727 C 332.159 99.513,331.960 98.968,331.718 98.516 C 331.476 98.064,331.278 97.515,331.278 97.296 C 331.278 97.078,331.079 96.510,330.837 96.035 C 330.595 95.560,330.396 95.015,330.396 94.824 C 330.396 94.632,330.198 94.087,329.956 93.612 C 329.714 93.137,329.515 92.571,329.514 92.355 C 329.513 92.138,329.384 91.713,329.227 91.410 C 329.070 91.107,328.709 90.133,328.425 89.245 L 327.907 87.631 328.496 87.042 C 329.076 86.462,329.135 86.452,332.879 86.327 C 337.114 86.185,338.363 85.889,339.584 84.738 C 341.054 83.352,340.969 84.718,340.969 62.410 L 340.969 42.177 340.398 41.105 C 338.915 38.319,340.221 38.474,317.462 38.385 L 298.031 38.308 297.909 38.813 M358.580 38.638 C 356.478 39.226,355.356 40.479,355.053 42.575 C 354.815 44.219,354.805 123.827,355.042 125.494 C 355.240 126.880,356.085 128.030,357.506 128.846 L 358.480 129.405 377.313 129.405 L 396.145 129.405 397.319 128.787 C 398.030 128.412,398.638 127.900,398.861 127.486 C 399.063 127.110,399.403 126.621,399.615 126.397 C 400.078 125.910,400.231 41.850,399.768 41.850 C 399.641 41.850,399.385 41.479,399.199 41.024 C 398.805 40.061,398.283 39.578,396.916 38.916 L 395.925 38.436 377.753 38.397 C 363.618 38.367,359.359 38.420,358.580 38.638 M159.300 38.889 L 158.811 39.232 158.811 84.146 C 158.811 128.325,158.818 129.063,159.237 129.287 C 159.870 129.626,169.658 129.593,170.000 129.251 C 170.506 128.745,170.369 39.370,169.862 38.911 C 169.277 38.381,160.052 38.362,159.300 38.889 M90.046 47.655 C 91.523 48.474,91.407 45.385,91.408 83.877 C 91.410 121.528,91.483 119.292,90.217 120.121 C 89.724 120.444,88.622 120.485,80.237 120.485 L 70.810 120.485 70.207 119.925 L 69.604 119.365 69.604 84.045 L 69.604 48.724 70.382 48.040 L 71.161 47.357 80.349 47.365 C 87.399 47.371,89.656 47.438,90.046 47.655 M387.689 48.230 L 388.326 48.992 388.326 83.989 L 388.326 118.987 387.577 119.736 L 386.828 120.485 377.244 120.485 L 367.660 120.485 367.090 119.807 L 366.520 119.129 366.520 84.044 L 366.520 48.958 366.991 48.359 C 367.750 47.394,367.963 47.376,377.723 47.422 L 387.053 47.467 387.689 48.230 " stroke="none" fill="#ef7b00" fill-rule="evenodd"></path><path id="path1" d="M14.262 38.271 C 18.654 38.304,25.840 38.304,30.231 38.271 C 34.623 38.237,31.030 38.210,22.247 38.210 C 13.464 38.210,9.871 38.237,14.262 38.271 M71.988 38.271 C 76.752 38.304,84.483 38.304,89.168 38.271 C 93.854 38.238,89.956 38.211,80.507 38.211 C 71.057 38.211,67.224 38.238,71.988 38.271 M125.826 38.271 C 130.036 38.304,136.925 38.304,141.134 38.271 C 145.344 38.237,141.900 38.210,133.480 38.210 C 125.061 38.210,121.616 38.237,125.826 38.271 M188.062 38.270 C 189.311 38.309,191.293 38.309,192.468 38.270 C 193.642 38.230,192.621 38.198,190.198 38.198 C 187.775 38.198,186.814 38.231,188.062 38.270 M219.355 38.491 C 219.088 38.831,219.094 38.845,219.400 38.606 C 219.643 38.417,221.134 38.316,224.356 38.271 L 228.965 38.206 224.311 38.156 C 220.105 38.111,219.628 38.143,219.355 38.491 M254.664 38.271 C 259.592 38.304,267.720 38.304,272.726 38.271 C 277.732 38.238,273.700 38.211,263.767 38.211 C 253.833 38.211,249.737 38.238,254.664 38.271 M307.561 38.271 C 312.627 38.304,320.854 38.304,325.842 38.271 C 330.831 38.238,326.685 38.211,316.630 38.211 C 306.575 38.211,302.494 38.238,307.561 38.271 M368.667 38.271 C 373.422 38.304,381.203 38.304,385.958 38.271 C 390.713 38.238,386.823 38.211,377.313 38.211 C 367.803 38.211,363.912 38.238,368.667 38.271 M117.509 84.141 C 117.509 108.915,117.535 119.050,117.566 106.663 C 117.598 94.276,117.598 74.006,117.566 61.619 C 117.535 49.232,117.509 59.367,117.509 84.141 M297.685 84.361 C 297.685 109.014,297.711 119.100,297.742 106.773 C 297.774 94.447,297.774 74.276,297.742 61.949 C 297.711 49.623,297.685 59.708,297.685 84.361 M276.536 63.767 C 276.536 71.641,276.563 74.830,276.597 70.854 C 276.630 66.878,276.630 60.435,276.597 56.537 C 276.563 52.639,276.536 55.892,276.536 63.767 M262.643 84.471 C 262.643 86.289,262.678 87.003,262.719 86.058 C 262.760 85.114,262.760 83.627,262.718 82.754 C 262.677 81.881,262.643 82.654,262.643 84.471 M125.013 154.611 C 124.787 154.861,124.409 155.066,124.175 155.066 C 123.940 155.066,123.496 155.264,123.188 155.507 C 122.880 155.749,122.485 155.947,122.310 155.947 C 121.847 155.947,120.705 157.164,120.705 157.658 C 120.705 157.891,120.519 158.250,120.292 158.455 C 120.065 158.660,119.826 159.229,119.760 159.718 C 119.695 160.207,119.484 160.780,119.292 160.993 C 118.754 161.587,118.812 164.312,119.382 165.248 C 119.624 165.645,119.823 166.202,119.823 166.487 C 119.824 167.164,121.724 169.163,122.366 169.163 C 122.626 169.163,123.019 169.361,123.238 169.604 C 123.457 169.846,123.903 170.044,124.229 170.044 C 124.555 170.044,125.001 170.242,125.220 170.485 C 125.461 170.751,125.899 170.925,126.326 170.925 C 126.715 170.925,127.285 171.123,127.593 171.366 C 127.901 171.608,128.342 171.806,128.573 171.806 C 130.073 171.806,130.991 175.784,129.570 176.131 C 129.237 176.212,128.728 176.462,128.439 176.686 C 127.753 177.217,126.491 177.202,125.661 176.652 C 125.297 176.411,124.703 176.212,124.339 176.210 C 123.882 176.207,123.378 175.934,122.705 175.327 C 121.413 174.162,119.824 174.593,119.824 176.108 C 119.824 176.370,119.626 176.763,119.383 176.982 C 119.141 177.202,118.943 177.582,118.943 177.828 C 118.943 178.074,118.720 178.513,118.448 178.803 L 117.952 179.330 118.833 180.096 C 120.152 181.245,120.167 181.253,121.147 181.474 C 121.648 181.586,122.249 181.851,122.482 182.062 C 122.855 182.399,123.430 182.445,127.257 182.445 L 131.608 182.445 132.819 181.749 C 133.486 181.366,134.328 180.909,134.692 180.733 C 135.493 180.346,136.344 179.462,136.344 179.018 C 136.344 178.840,136.542 178.442,136.784 178.134 C 137.026 177.826,137.227 177.342,137.230 177.058 C 137.232 176.774,137.428 176.294,137.665 175.991 C 138.278 175.208,138.278 172.677,137.665 171.476 C 137.423 171.001,137.225 170.368,137.225 170.070 C 137.225 169.447,134.399 166.520,133.798 166.520 C 133.601 166.520,133.188 166.322,132.879 166.079 C 132.548 165.819,131.986 165.639,131.502 165.639 C 130.983 165.639,130.549 165.488,130.311 165.226 C 130.106 164.999,129.553 164.762,129.081 164.698 C 126.985 164.417,125.821 161.970,127.151 160.640 C 127.716 160.075,131.825 160.186,132.639 160.787 C 133.567 161.474,134.320 161.375,134.706 160.518 C 134.883 160.124,135.121 159.653,135.233 159.471 C 135.636 158.821,137.004 156.363,137.004 156.290 C 137.004 156.249,136.732 156.147,136.399 156.064 C 136.066 155.981,135.627 155.763,135.425 155.581 C 135.222 155.398,134.627 155.195,134.103 155.129 C 133.579 155.062,132.966 154.848,132.742 154.652 C 132.036 154.035,125.565 154.001,125.013 154.611 M142.739 155.492 C 142.392 156.141,142.427 181.766,142.775 182.115 C 143.054 182.393,148.536 182.504,149.211 182.245 C 149.513 182.129,149.563 181.472,149.586 177.344 C 149.618 171.321,149.916 169.904,150.735 171.864 C 150.907 172.276,151.704 173.342,152.506 174.233 C 153.308 175.123,153.965 175.986,153.965 176.151 C 153.965 176.315,154.609 177.135,155.396 177.974 C 156.184 178.812,156.828 179.628,156.828 179.786 C 156.828 179.944,157.282 180.592,157.836 181.226 L 158.845 182.379 162.876 182.379 C 168.262 182.379,168.339 182.260,165.113 178.946 C 164.083 177.887,163.114 176.718,162.960 176.347 C 162.807 175.976,161.909 174.878,160.966 173.906 C 160.023 172.935,159.251 171.985,159.251 171.797 C 159.251 171.609,158.509 170.666,157.603 169.703 C 155.619 167.595,155.623 168.054,157.575 166.045 C 158.470 165.123,159.458 163.936,159.772 163.407 C 160.085 162.878,161.241 161.513,162.341 160.374 C 163.440 159.234,164.473 157.995,164.636 157.620 C 164.799 157.245,165.245 156.605,165.627 156.197 C 166.573 155.187,166.569 155.185,162.069 155.107 L 158.093 155.038 157.479 155.627 C 157.140 155.951,156.803 156.457,156.729 156.752 C 156.655 157.046,156.005 157.903,155.285 158.655 C 154.564 159.407,153.972 160.175,153.970 160.362 C 153.967 160.550,153.258 161.491,152.395 162.455 C 151.532 163.419,150.728 164.484,150.608 164.823 C 149.953 166.676,149.589 164.783,149.572 159.442 C 149.557 154.599,149.970 155.074,145.768 155.069 C 143.222 155.066,142.946 155.105,142.739 155.492 M171.217 155.237 C 170.821 155.489,170.531 181.573,170.919 182.041 C 171.287 182.484,176.588 182.538,177.134 182.104 C 177.440 181.861,177.497 180.264,177.617 168.662 L 177.754 155.496 177.189 155.281 C 176.530 155.031,171.599 154.995,171.217 155.237 M184.086 155.304 C 183.454 155.672,183.494 181.812,184.126 182.151 C 184.766 182.493,198.069 182.459,198.414 182.115 C 198.851 181.677,198.776 176.516,198.330 176.345 C 198.138 176.272,196.473 176.211,194.630 176.211 C 192.316 176.211,191.196 176.130,191.013 175.947 C 190.815 175.749,190.749 173.149,190.749 165.602 C 190.749 155.862,190.735 155.514,190.323 155.294 C 189.774 155.001,184.593 155.009,184.086 155.304 M203.485 155.215 C 202.777 155.402,202.124 181.567,202.814 182.104 C 203.270 182.458,216.979 182.502,217.636 182.151 C 218.020 181.945,218.062 181.668,218.062 179.295 C 218.062 176.044,218.293 176.211,213.823 176.211 C 209.233 176.211,209.725 177.545,209.923 165.639 C 210.072 156.607,210.054 155.590,209.738 155.341 C 209.400 155.076,204.395 154.974,203.485 155.215 M234.545 155.214 C 233.901 155.385,233.875 155.835,233.756 169.074 L 233.638 182.091 234.165 182.232 C 235.692 182.640,248.163 182.386,248.568 181.938 C 248.788 181.696,249.159 181.498,249.394 181.498 C 249.628 181.498,250.072 181.300,250.380 181.057 C 250.688 180.815,251.103 180.617,251.301 180.617 C 251.728 180.617,255.727 176.664,255.727 176.242 C 255.727 176.082,255.925 175.699,256.167 175.391 C 256.410 175.082,256.608 174.678,256.608 174.492 C 256.608 174.306,256.781 173.963,256.991 173.730 C 257.950 172.670,257.917 164.958,256.949 163.889 C 256.762 163.681,256.608 163.339,256.608 163.128 C 256.608 162.917,256.211 162.274,255.727 161.699 C 255.242 161.125,254.846 160.545,254.846 160.410 C 254.846 159.937,253.708 158.822,252.547 158.158 C 251.902 157.788,251.250 157.338,251.100 157.157 C 250.950 156.976,250.654 156.828,250.443 156.828 C 250.232 156.828,249.807 156.630,249.499 156.388 C 249.169 156.128,248.606 155.947,248.128 155.947 C 247.650 155.947,247.086 155.766,246.756 155.507 C 246.223 155.087,235.954 154.841,234.545 155.214 M263.194 155.212 C 262.765 155.326,262.405 181.589,262.825 182.104 C 263.263 182.641,277.809 182.485,278.304 181.938 C 278.523 181.696,278.965 181.498,279.286 181.498 C 279.981 181.498,281.938 179.588,281.938 178.911 C 281.938 178.675,282.137 178.303,282.379 178.084 C 282.774 177.726,282.819 177.405,282.819 174.946 C 282.819 172.540,282.766 172.138,282.379 171.646 C 282.137 171.338,281.938 170.926,281.938 170.729 C 281.938 170.246,280.758 169.163,280.230 169.163 C 279.996 169.163,279.633 168.974,279.423 168.742 C 279.214 168.511,278.802 168.261,278.508 168.187 C 277.792 168.008,277.835 167.704,278.634 167.291 C 279.001 167.101,279.295 166.771,279.295 166.548 C 279.295 166.328,279.493 165.968,279.736 165.749 C 280.137 165.386,280.176 165.070,280.176 162.224 L 280.176 159.097 278.689 157.520 C 277.293 156.039,277.145 155.943,276.258 155.945 C 275.738 155.946,274.924 155.749,274.449 155.507 C 273.630 155.089,264.542 154.850,263.194 155.212 M272.063 161.191 C 274.149 161.585,274.936 163.633,273.513 164.966 C 273.119 165.335,272.619 165.637,272.401 165.638 C 272.183 165.638,271.737 165.776,271.410 165.943 C 270.117 166.603,269.824 166.167,269.824 163.590 C 269.824 160.777,269.831 160.770,272.063 161.191 M245.277 161.560 C 245.512 161.740,246.063 161.988,246.500 162.111 C 247.524 162.400,249.246 163.915,249.442 164.700 C 249.525 165.034,249.759 165.492,249.961 165.716 C 250.589 166.412,250.636 170.993,250.024 171.820 C 249.769 172.166,249.559 172.595,249.559 172.774 C 249.559 173.206,247.698 174.997,246.547 175.672 C 245.584 176.237,241.942 176.472,241.223 176.017 C 240.761 175.724,240.940 161.746,241.410 161.449 C 241.953 161.106,244.789 161.187,245.277 161.560 M221.090 170.282 C 220.484 170.635,220.519 174.775,221.131 175.102 C 221.761 175.439,230.452 175.407,230.793 175.066 C 230.962 174.897,231.057 174.038,231.057 172.687 C 231.057 171.336,230.962 170.477,230.793 170.308 C 230.455 169.971,221.666 169.947,221.090 170.282 M273.171 171.726 C 275.273 171.928,275.820 172.515,275.727 174.468 C 275.673 175.607,275.578 175.913,275.220 176.098 C 274.978 176.224,274.518 176.503,274.198 176.719 C 273.733 177.033,273.252 177.098,271.776 177.047 L 269.934 176.982 269.871 174.452 C 269.802 171.662,269.996 171.207,271.145 171.462 C 271.448 171.529,272.360 171.648,273.171 171.726 " stroke="none" fill="#94bde5" fill-rule="evenodd"></path><path id="path2" d="M0.000 21.054 C 0.000 42.246,0.043 43.438,0.730 41.286 C 1.692 38.270,2.744 38.115,22.262 38.110 C 41.528 38.105,41.594 38.114,43.423 40.957 L 44.053 41.936 44.053 53.303 C 44.053 61.850,43.987 64.735,43.789 64.934 C 43.392 65.330,33.185 65.308,32.855 64.910 C 32.695 64.718,32.594 62.016,32.552 56.815 C 32.482 48.156,32.477 48.128,30.969 47.586 C 30.043 47.253,14.075 47.276,13.339 47.611 C 11.898 48.268,12.011 45.368,11.941 83.480 C 11.873 120.223,11.851 119.160,12.712 119.958 L 13.280 120.485 22.165 120.485 L 31.050 120.485 31.770 119.842 L 32.489 119.200 32.608 110.426 C 32.673 105.600,32.747 101.627,32.773 101.597 C 32.799 101.567,35.293 101.542,38.316 101.542 L 43.813 101.542 43.943 102.258 C 44.014 102.651,44.043 108.227,44.008 114.648 L 43.943 126.322 43.281 127.313 C 42.840 127.972,42.249 128.489,41.518 128.855 L 40.419 129.405 22.278 129.464 L 4.138 129.523 3.115 129.026 C 1.890 128.432,1.075 127.655,0.756 126.775 C 0.007 124.716,0.000 125.142,0.000 173.109 L 0.000 220.264 200.000 220.264 L 400.000 220.264 400.000 173.238 C 400.000 140.512,399.930 126.211,399.768 126.211 C 399.641 126.211,399.402 126.536,399.236 126.932 C 398.886 127.769,398.402 128.246,397.218 128.920 L 396.366 129.405 377.637 129.465 L 358.909 129.525 357.705 128.914 C 356.003 128.051,355.143 126.843,354.963 125.062 C 354.886 124.301,354.853 105.242,354.889 82.709 L 354.956 41.740 355.460 40.929 C 357.239 38.068,356.948 38.106,377.326 38.106 C 397.379 38.106,397.796 38.156,399.119 40.749 C 399.366 41.234,399.666 41.630,399.784 41.630 C 399.924 41.630,400.000 34.257,400.000 20.815 L 400.000 0.000 200.000 0.000 L 0.000 0.000 0.000 21.054 M98.742 38.521 C 100.800 39.035,101.777 39.754,102.454 41.253 L 102.974 42.401 102.974 83.928 C 102.974 124.504,102.964 125.477,102.547 126.439 C 101.982 127.745,101.427 128.338,100.226 128.921 L 99.229 129.405 80.611 129.465 L 61.993 129.525 60.789 128.914 C 59.193 128.106,58.228 126.827,58.045 125.280 C 57.970 124.641,57.938 105.584,57.974 82.930 L 58.040 41.740 58.601 40.816 C 59.392 39.512,60.096 39.034,61.938 38.551 C 64.406 37.905,96.171 37.878,98.742 38.521 M149.119 38.391 L 149.670 38.669 149.730 42.577 C 149.813 47.958,151.073 47.327,140.090 47.403 L 130.847 47.467 130.236 48.078 L 129.626 48.688 129.566 63.274 C 129.503 78.603,129.514 78.804,130.482 79.359 C 130.815 79.550,133.429 79.657,139.711 79.736 C 147.179 79.830,148.505 79.895,148.683 80.176 C 148.798 80.358,148.893 82.318,148.895 84.532 L 148.899 88.557 148.334 88.772 C 148.003 88.898,144.310 88.987,139.416 88.987 L 131.064 88.987 130.345 89.629 L 129.626 90.272 129.515 109.839 L 129.405 129.405 123.706 129.464 C 119.685 129.506,117.917 129.449,117.703 129.272 C 117.449 129.061,117.401 121.923,117.401 84.144 L 117.401 39.266 117.857 38.686 L 118.314 38.106 133.441 38.109 C 145.188 38.111,148.691 38.174,149.119 38.391 M195.009 38.601 C 195.288 38.881,196.450 41.501,197.672 44.604 C 198.864 47.632,200.878 52.737,202.147 55.947 C 204.729 62.480,206.948 68.119,208.040 70.925 C 208.441 71.955,209.314 74.185,209.981 75.881 C 214.269 86.787,215.897 90.940,216.734 93.118 C 217.500 95.110,218.001 95.609,218.585 94.965 C 218.911 94.604,218.943 92.130,218.943 66.802 C 218.943 40.653,218.965 39.008,219.329 38.558 C 219.811 37.963,228.883 37.928,229.593 38.519 C 229.930 38.799,229.953 42.213,229.901 84.113 L 229.846 129.405 224.975 129.464 C 221.147 129.511,220.053 129.461,219.863 129.232 C 219.730 129.072,217.623 123.742,215.181 117.389 C 212.739 111.035,209.805 103.409,208.661 100.441 C 207.517 97.472,205.996 93.508,205.281 91.630 C 204.566 89.752,203.576 87.175,203.080 85.903 C 202.585 84.631,201.449 81.657,200.557 79.295 C 197.639 71.569,197.357 70.990,196.647 71.263 C 196.046 71.493,196.041 71.743,196.038 100.802 C 196.036 126.536,196.002 129.261,195.687 129.382 C 195.232 129.556,185.605 129.556,185.150 129.382 C 184.680 129.201,184.608 39.315,185.077 38.724 C 185.746 37.881,194.185 37.777,195.009 38.601 M283.133 38.451 C 288.418 39.375,288.106 37.791,288.104 63.720 L 288.101 84.692 287.582 85.793 C 286.219 88.683,285.580 88.824,273.348 88.928 C 264.961 88.999,263.483 88.964,263.106 88.686 C 262.554 88.279,262.416 80.667,262.951 80.132 C 263.166 79.917,264.716 79.818,269.160 79.736 L 275.082 79.626 275.757 78.979 L 276.432 78.332 276.432 63.619 L 276.432 48.906 275.789 48.186 L 275.147 47.467 267.034 47.399 C 258.282 47.326,257.593 47.394,256.908 48.405 C 256.513 48.987,256.494 50.477,256.388 89.207 L 256.278 129.405 250.991 129.467 C 248.084 129.501,245.482 129.475,245.209 129.408 L 244.714 129.287 244.714 84.179 C 244.714 37.110,244.685 38.584,245.595 38.259 C 246.506 37.933,281.187 38.111,283.133 38.451 M336.178 38.452 C 338.640 38.870,339.667 39.486,340.436 41.004 L 340.969 42.056 340.962 62.493 L 340.955 82.930 340.453 83.746 C 339.245 85.711,337.933 86.163,332.965 86.325 L 329.037 86.454 328.519 87.055 C 328.071 87.576,328.032 87.753,328.226 88.377 C 328.350 88.773,328.526 89.394,328.618 89.758 C 328.710 90.121,328.949 90.736,329.150 91.123 C 329.351 91.511,329.519 92.007,329.523 92.225 C 329.527 92.443,329.722 93.018,329.956 93.502 C 330.190 93.987,330.388 94.532,330.396 94.714 C 330.405 94.895,330.603 95.441,330.837 95.925 C 331.071 96.410,331.266 96.940,331.270 97.103 C 331.274 97.267,331.425 97.713,331.604 98.094 C 331.784 98.476,332.073 99.235,332.247 99.780 C 332.420 100.325,332.823 101.465,333.140 102.313 C 333.458 103.161,333.855 104.251,334.021 104.736 C 334.188 105.220,334.585 106.311,334.902 107.159 C 335.220 108.007,335.617 109.097,335.784 109.581 C 335.950 110.066,336.347 111.156,336.665 112.004 C 336.982 112.852,337.379 113.943,337.546 114.427 C 337.712 114.912,338.110 116.002,338.430 116.850 C 338.749 117.698,339.108 118.739,339.227 119.163 C 339.345 119.587,339.576 120.182,339.740 120.485 C 339.903 120.787,340.110 121.382,340.198 121.806 C 340.287 122.230,340.450 122.690,340.560 122.827 C 340.670 122.964,340.897 123.559,341.065 124.149 C 341.435 125.452,341.975 126.954,342.425 127.927 C 343.124 129.439,343.270 129.399,336.796 129.464 C 333.343 129.499,330.892 129.438,330.768 129.314 C 330.565 129.111,330.435 128.773,329.076 124.890 C 328.715 123.860,328.120 122.175,327.753 121.145 C 327.386 120.116,326.787 118.395,326.421 117.321 C 326.056 116.248,325.611 115.088,325.433 114.744 C 325.256 114.400,325.107 113.891,325.103 113.612 C 325.099 113.334,324.904 112.709,324.670 112.225 C 324.436 111.740,324.237 111.195,324.229 111.013 C 324.221 110.831,324.023 110.286,323.789 109.802 C 323.554 109.317,323.360 108.787,323.355 108.624 C 323.351 108.460,323.206 108.014,323.032 107.632 C 322.858 107.251,322.615 106.591,322.493 106.167 C 322.371 105.743,322.009 104.703,321.690 103.855 C 321.370 103.007,320.967 101.867,320.793 101.322 C 320.619 100.776,320.330 100.018,320.151 99.636 C 319.971 99.255,319.824 98.779,319.824 98.579 C 319.824 98.379,319.659 97.899,319.458 97.511 C 319.258 97.123,319.015 96.509,318.919 96.145 C 318.700 95.317,317.893 92.987,317.622 92.401 C 316.290 89.516,315.639 86.611,315.639 83.547 C 315.639 79.503,314.995 79.871,322.299 79.736 L 328.233 79.626 328.764 79.008 L 329.295 78.390 329.294 63.589 L 329.293 48.789 328.764 48.128 L 328.236 47.467 319.519 47.467 L 310.801 47.467 310.081 48.187 L 309.361 48.907 309.251 89.156 L 309.141 129.405 303.662 129.464 C 299.804 129.506,298.093 129.449,297.880 129.272 C 297.504 128.961,297.420 40.524,297.793 39.221 C 297.912 38.806,298.135 38.387,298.289 38.290 C 298.869 37.922,333.941 38.072,336.178 38.452 M169.838 38.774 C 170.441 39.097,170.518 129.151,169.916 129.382 C 169.461 129.556,159.614 129.556,159.159 129.382 C 158.627 129.177,158.624 39.425,159.157 38.892 C 159.574 38.475,169.083 38.370,169.838 38.774 M71.208 47.511 C 70.940 47.563,70.469 47.904,70.162 48.269 L 69.604 48.932 69.604 84.091 L 69.604 119.249 70.195 119.867 L 70.787 120.485 80.252 120.485 L 89.716 120.485 90.563 119.594 L 91.410 118.704 91.410 84.201 C 91.410 45.362,91.532 48.190,89.824 47.595 C 89.166 47.366,72.351 47.290,71.208 47.511 M368.062 47.597 C 366.501 48.207,366.630 44.906,366.630 84.199 L 366.630 119.389 367.291 119.929 L 367.952 120.469 377.360 120.477 L 386.769 120.485 387.548 119.706 L 388.326 118.928 388.320 83.968 L 388.314 49.009 387.675 48.238 L 387.036 47.467 377.824 47.425 C 372.247 47.399,368.395 47.467,368.062 47.597 M132.742 154.652 C 132.966 154.848,133.579 155.062,134.103 155.129 C 134.627 155.195,135.222 155.398,135.425 155.581 C 135.627 155.763,136.066 155.981,136.399 156.064 C 136.732 156.147,137.004 156.249,137.004 156.290 C 137.004 156.363,135.636 158.821,135.233 159.471 C 135.121 159.653,134.883 160.124,134.706 160.518 C 134.320 161.375,133.567 161.474,132.639 160.787 C 131.825 160.186,127.716 160.075,127.151 160.640 C 125.821 161.970,126.985 164.417,129.081 164.698 C 129.553 164.762,130.106 164.999,130.311 165.226 C 130.549 165.488,130.983 165.639,131.502 165.639 C 131.986 165.639,132.548 165.819,132.879 166.079 C 133.188 166.322,133.601 166.520,133.798 166.520 C 134.399 166.520,137.225 169.447,137.225 170.070 C 137.225 170.368,137.423 171.001,137.665 171.476 C 138.278 172.677,138.278 175.208,137.665 175.991 C 137.428 176.294,137.232 176.774,137.230 177.058 C 137.227 177.342,137.026 177.826,136.784 178.134 C 136.542 178.442,136.344 178.840,136.344 179.018 C 136.344 179.462,135.493 180.346,134.692 180.733 C 134.328 180.909,133.486 181.366,132.819 181.749 L 131.608 182.445 127.257 182.445 C 123.430 182.445,122.855 182.399,122.482 182.062 C 122.249 181.851,121.648 181.586,121.147 181.474 C 120.167 181.253,120.152 181.245,118.833 180.096 L 117.952 179.330 118.448 178.803 C 118.720 178.513,118.943 178.074,118.943 177.828 C 118.943 177.582,119.141 177.202,119.383 176.982 C 119.626 176.763,119.824 176.370,119.824 176.108 C 119.824 174.593,121.413 174.162,122.705 175.327 C 123.378 175.934,123.882 176.207,124.339 176.210 C 124.703 176.212,125.297 176.411,125.661 176.652 C 126.491 177.202,127.753 177.217,128.439 176.686 C 128.728 176.462,129.237 176.212,129.570 176.131 C 130.991 175.784,130.073 171.806,128.573 171.806 C 128.342 171.806,127.901 171.608,127.593 171.366 C 127.285 171.123,126.715 170.925,126.326 170.925 C 125.899 170.925,125.461 170.751,125.220 170.485 C 125.001 170.242,124.555 170.044,124.229 170.044 C 123.903 170.044,123.457 169.846,123.238 169.604 C 123.019 169.361,122.626 169.163,122.366 169.163 C 121.724 169.163,119.824 167.164,119.823 166.487 C 119.823 166.202,119.624 165.645,119.382 165.248 C 118.812 164.312,118.754 161.587,119.292 160.993 C 119.484 160.780,119.695 160.207,119.760 159.718 C 119.826 159.229,120.065 158.660,120.292 158.455 C 120.519 158.250,120.705 157.891,120.705 157.658 C 120.705 157.164,121.847 155.947,122.310 155.947 C 122.485 155.947,122.880 155.749,123.188 155.507 C 123.496 155.264,123.940 155.066,124.175 155.066 C 124.409 155.066,124.787 154.861,125.013 154.611 C 125.565 154.001,132.036 154.035,132.742 154.652 M149.064 155.205 C 149.555 155.336,149.560 155.377,149.572 159.442 C 149.589 164.783,149.953 166.676,150.608 164.823 C 150.728 164.484,151.532 163.419,152.395 162.455 C 153.258 161.491,153.967 160.550,153.970 160.362 C 153.972 160.175,154.564 159.407,155.285 158.655 C 156.005 157.903,156.655 157.046,156.729 156.752 C 156.803 156.457,157.140 155.951,157.479 155.627 L 158.093 155.038 162.069 155.107 C 166.569 155.185,166.573 155.187,165.627 156.197 C 165.245 156.605,164.799 157.245,164.636 157.620 C 164.473 157.995,163.440 159.234,162.341 160.374 C 161.241 161.513,160.085 162.878,159.772 163.407 C 159.458 163.936,158.470 165.123,157.575 166.045 C 155.623 168.054,155.619 167.595,157.603 169.703 C 158.509 170.666,159.251 171.609,159.251 171.797 C 159.251 171.985,160.023 172.935,160.966 173.906 C 161.909 174.878,162.807 175.976,162.960 176.347 C 163.114 176.718,164.083 177.887,165.113 178.946 C 168.339 182.260,168.262 182.379,162.876 182.379 L 158.845 182.379 157.836 181.226 C 157.282 180.592,156.828 179.944,156.828 179.786 C 156.828 179.628,156.184 178.812,155.396 177.974 C 154.609 177.135,153.965 176.315,153.965 176.151 C 153.965 175.986,153.308 175.123,152.506 174.233 C 151.704 173.342,150.907 172.276,150.735 171.864 C 149.916 169.904,149.618 171.321,149.586 177.344 C 149.563 181.472,149.513 182.129,149.211 182.245 C 148.536 182.504,143.054 182.393,142.775 182.115 C 142.427 181.766,142.392 156.141,142.739 155.492 C 142.972 155.057,147.708 154.842,149.064 155.205 M177.189 155.281 L 177.754 155.496 177.617 168.662 C 177.497 180.264,177.440 181.861,177.134 182.104 C 176.588 182.538,171.287 182.484,170.919 182.041 C 170.531 181.573,170.821 155.489,171.217 155.237 C 171.599 154.995,176.530 155.031,177.189 155.281 M190.323 155.294 C 190.735 155.514,190.749 155.862,190.749 165.602 C 190.749 173.149,190.815 175.749,191.013 175.947 C 191.196 176.130,192.316 176.211,194.630 176.211 C 196.473 176.211,198.138 176.272,198.330 176.345 C 198.776 176.516,198.851 181.677,198.414 182.115 C 198.069 182.459,184.766 182.493,184.126 182.151 C 183.494 181.812,183.454 155.672,184.086 155.304 C 184.593 155.009,189.774 155.001,190.323 155.294 M209.738 155.341 C 210.054 155.590,210.072 156.607,209.923 165.639 C 209.725 177.545,209.233 176.211,213.823 176.211 C 218.293 176.211,218.062 176.044,218.062 179.295 C 218.062 181.668,218.020 181.945,217.636 182.151 C 216.979 182.502,203.270 182.458,202.814 182.104 C 202.124 181.567,202.777 155.402,203.485 155.215 C 204.395 154.974,209.400 155.076,209.738 155.341 M246.756 155.507 C 247.086 155.766,247.650 155.947,248.128 155.947 C 248.606 155.947,249.169 156.128,249.499 156.388 C 249.807 156.630,250.232 156.828,250.443 156.828 C 250.654 156.828,250.950 156.976,251.100 157.157 C 251.250 157.338,251.902 157.788,252.547 158.158 C 253.708 158.822,254.846 159.937,254.846 160.410 C 254.846 160.545,255.242 161.125,255.727 161.699 C 256.211 162.274,256.608 162.917,256.608 163.128 C 256.608 163.339,256.762 163.681,256.949 163.889 C 257.917 164.958,257.950 172.670,256.991 173.730 C 256.781 173.963,256.608 174.306,256.608 174.492 C 256.608 174.678,256.410 175.082,256.167 175.391 C 255.925 175.699,255.727 176.082,255.727 176.242 C 255.727 176.664,251.728 180.617,251.301 180.617 C 251.103 180.617,250.688 180.815,250.380 181.057 C 250.072 181.300,249.628 181.498,249.394 181.498 C 249.159 181.498,248.788 181.696,248.568 181.938 C 248.163 182.386,235.692 182.640,234.165 182.232 L 233.638 182.091 233.756 169.074 C 233.875 155.835,233.901 155.385,234.545 155.214 C 235.954 154.841,246.223 155.087,246.756 155.507 M274.449 155.507 C 274.924 155.749,275.738 155.946,276.258 155.945 C 277.145 155.943,277.293 156.039,278.689 157.520 L 280.176 159.097 280.176 162.224 C 280.176 165.070,280.137 165.386,279.736 165.749 C 279.493 165.968,279.295 166.328,279.295 166.548 C 279.295 166.771,279.001 167.101,278.634 167.291 C 277.835 167.704,277.792 168.008,278.508 168.187 C 278.802 168.261,279.214 168.511,279.423 168.742 C 279.633 168.974,279.996 169.163,280.230 169.163 C 280.758 169.163,281.938 170.246,281.938 170.729 C 281.938 170.926,282.137 171.338,282.379 171.646 C 282.766 172.138,282.819 172.540,282.819 174.946 C 282.819 177.405,282.774 177.726,282.379 178.084 C 282.137 178.303,281.938 178.675,281.938 178.911 C 281.938 179.588,279.981 181.498,279.286 181.498 C 278.965 181.498,278.523 181.696,278.304 181.938 C 277.809 182.485,263.263 182.641,262.825 182.104 C 262.405 181.589,262.765 155.326,263.194 155.212 C 264.542 154.850,273.630 155.089,274.449 155.507 M269.971 161.160 C 269.890 161.241,269.824 162.334,269.824 163.590 C 269.824 166.167,270.117 166.603,271.410 165.943 C 271.737 165.776,272.183 165.638,272.401 165.638 C 273.994 165.634,274.795 163.065,273.550 161.951 C 272.731 161.218,270.423 160.708,269.971 161.160 M241.410 161.449 C 240.940 161.746,240.761 175.724,241.223 176.017 C 241.942 176.472,245.584 176.237,246.547 175.672 C 247.698 174.997,249.559 173.206,249.559 172.774 C 249.559 172.595,249.769 172.166,250.024 171.820 C 250.636 170.993,250.589 166.412,249.961 165.716 C 249.759 165.492,249.525 165.034,249.442 164.700 C 249.246 163.915,247.524 162.400,246.500 162.111 C 246.063 161.988,245.512 161.740,245.277 161.560 C 244.789 161.187,241.953 161.106,241.410 161.449 M230.793 170.308 C 230.962 170.477,231.057 171.336,231.057 172.687 C 231.057 174.038,230.962 174.897,230.793 175.066 C 230.452 175.407,221.761 175.439,221.131 175.102 C 220.519 174.775,220.484 170.635,221.090 170.282 C 221.666 169.947,230.455 169.971,230.793 170.308 M270.202 171.631 C 269.857 171.886,269.816 172.234,269.871 174.452 L 269.934 176.982 271.776 177.047 C 273.252 177.098,273.733 177.033,274.198 176.719 C 274.518 176.503,274.978 176.224,275.220 176.098 C 275.578 175.913,275.673 175.607,275.727 174.468 C 275.820 172.515,275.273 171.928,273.171 171.726 C 272.360 171.648,271.448 171.529,271.145 171.462 C 270.843 171.395,270.418 171.471,270.202 171.631 " stroke="none" fill="#ffffff" fill-rule="evenodd"></path></g></svg>